<svg xmlns="http://www.w3.org/2000/svg" xmlns:xlink="http://www.w3.org/1999/xlink" width="500" zoomAndPan="magnify" viewBox="0 0 375 374.999991" height="500" preserveAspectRatio="xMidYMid meet" version="1.0"><defs><g/></defs><g fill="#4285f4" fill-opacity="1"><g transform="translate(113.819419, 289.579427)"><g><path d="M -5.1875 -102.578125 C -5.1875 -116.296875 -3.71875 -129.539062 -0.78125 -142.3125 C 2.144531 -155.09375 6.695312 -166.351562 12.875 -176.09375 C 19.0625 -185.832031 27.15625 -193.660156 37.15625 -199.578125 C 47.15625 -205.492188 59.222656 -208.453125 73.359375 -208.453125 C 87.492188 -208.453125 99.5625 -205.492188 109.5625 -199.578125 C 119.570312 -193.660156 127.71875 -185.832031 134 -176.09375 C 140.28125 -166.351562 144.832031 -155.09375 147.65625 -142.3125 C 150.488281 -129.539062 151.90625 -116.296875 151.90625 -102.578125 C 151.90625 -88.859375 150.488281 -75.632812 147.65625 -62.90625 C 144.832031 -50.1875 140.332031 -38.878906 134.15625 -28.984375 C 127.976562 -19.085938 119.882812 -11.179688 109.875 -5.265625 C 99.875 0.648438 87.703125 3.609375 73.359375 3.609375 C 59.015625 3.609375 46.835938 0.648438 36.828125 -5.265625 C 26.828125 -11.179688 18.710938 -19.085938 12.484375 -28.984375 C 6.253906 -38.878906 1.753906 -50.1875 -1.015625 -62.90625 C -3.796875 -75.632812 -5.1875 -88.859375 -5.1875 -102.578125 Z M 27.328125 -102.578125 C 27.328125 -92.941406 27.957031 -83.625 29.21875 -74.625 L 109.640625 -155.359375 C 106.085938 -162.484375 101.40625 -168.242188 95.59375 -172.640625 C 89.78125 -177.035156 82.367188 -179.234375 73.359375 -179.234375 C 58.378906 -179.234375 46.960938 -172.476562 39.109375 -158.96875 C 31.253906 -145.457031 27.328125 -126.660156 27.328125 -102.578125 Z M 73.359375 -25.765625 C 82.578125 -25.765625 90.144531 -28.015625 96.0625 -32.515625 C 101.976562 -37.015625 106.632812 -42.90625 110.03125 -50.1875 C 113.4375 -57.46875 115.847656 -65.710938 117.265625 -74.921875 C 118.679688 -84.140625 119.390625 -93.359375 119.390625 -102.578125 C 119.390625 -111.378906 118.757812 -119.96875 117.5 -128.34375 L 37.703125 -48.21875 C 41.265625 -41.414062 45.84375 -35.972656 51.4375 -31.890625 C 57.039062 -27.804688 64.347656 -25.765625 73.359375 -25.765625 Z M 73.359375 -25.765625 "/></g></g></g></svg>